<?xml version="1.0" encoding="UTF-8"?><svg id="Camada_2" xmlns="http://www.w3.org/2000/svg" viewBox="0 0 123.84 65.94"><defs><style>.cls-1{fill:#f6db04;}.cls-2{fill:#2d2d2d;}</style></defs><g id="Camada_1-2"><g><g><path class="cls-2" d="M69.5,10.77c-.67-1.99-1.58-3.79-2.73-5.41-1.15-1.62-2.43-2.92-3.84-3.89-1.42-.98-2.83-1.47-4.25-1.47H16.71l-1.28,7.27,20.07,12.55h9.23c1.89,0,3.17,.54,3.84,1.62,.67,1.08,.98,2.5,.91,4.25-.07,.61-.12,1.21-.15,1.82-.03,.61-.09,1.25-.15,1.92l-1.42,7.18c-.2,1.28-.47,2.5-.81,3.64-.34,1.15-.79,2.16-1.37,3.03-.57,.88-1.3,1.57-2.17,2.07-.88,.5-1.96,.76-3.24,.76h-12.44l1.64-9.45-21.05,10.89-3.24,18.39H47.05c1.55,0,3.29-.57,5.21-1.72,1.92-1.15,3.77-2.61,5.56-4.4,1.79-1.78,3.35-3.79,4.7-6.02,1.35-2.22,2.23-4.42,2.63-6.58l5.06-28.52c.07-.34,.12-.66,.15-.96,.03-.3,.05-.62,.05-.96,.07-2.02-.24-4.03-.91-6.02Z"/><polygon class="cls-1" points="0 47.8 6.86 6.81 39.63 27.31 0 47.8"/></g><path class="cls-2" d="M123.84,0H63.87l-3.54,19.82h17.29l-8.09,46.12h19.11l8.09-46.12h23.61L123.84,0Z"/></g></g></svg>