<svg id="Camada_1" data-name="Camada 1" xmlns="http://www.w3.org/2000/svg" width="268.35" height="289.1" viewBox="0 0 268.35 289.1">
  <path id="Caminho_53" data-name="Caminho 53" d="M268.27,39.35,268.2,35s-2.3,2.42-10,8.09c-40.06-9.46-84-19.57-124.06-32.37h0V0l-1.71.55C93.84,12.86,52.52,22.59,12.56,32L0,35s2.33,2.5,10,8.17c-2,122,36.5,206.1,124.1,235.21V289.1l1.78-.59c45.72-15.19,80.15-45,102.33-88.55C259.24,158.64,269.36,104.61,268.27,39.35ZM164,230.51l-30.15-16.3-30.18,16.3c-45.73-30.22-69.8-88.44-68.45-167.35,31-7.32,67.6-15.32,98.63-25.22,31,9.9,68.14,17.9,99.13,25.22C234.3,142.07,209.69,200.29,164,230.51Z" fill="#ededed"/>
  <path id="Caminho_54" data-name="Caminho 54" d="M87.73,87.93l-2.72,29.54h98.18L179.1,87.93Z" fill="#ededed"/>
  <path id="Caminho_55" data-name="Caminho 55" d="M167.59,64h-67c-8.54,0-10.68,12.44-10.68,12.44h88.34S176.13,64,167.59,64Z" fill="#ededed"/>
  <path id="Caminho_56" data-name="Caminho 56" d="M189.4,88.76v25.91a1,1,0,0,0,1.74.75l3.87-3a2.17,2.17,0,0,0,.66-1.57l.75-19.7a2.08,2.08,0,0,0-1.2-1.93l-4.43-1.42a1,1,0,0,0-1.39.96Z" fill="#ededed"/>
  <path id="Caminho_57" data-name="Caminho 57" d="M78.81,88.76v25.91a1,1,0,0,1-1.75.75l-3.87-3a2.17,2.17,0,0,1-.66-1.57l-.75-19.7A2.08,2.08,0,0,1,73,89.22l4.43-1.42a1,1,0,0,1,1.38.96Z" fill="#ededed"/>
  <path id="Caminho_58" data-name="Caminho 58" d="M132.19,128.55l-40-1.08s1.18,7.75,5.94,7.75l34,2.25L170,135.22c4.76,0,5.94-7.75,5.94-7.75Z" fill="#ededed"/>
  <path id="Caminho_59" data-name="Caminho 59" d="M132.3,144.87l-34-1.46s1.11,7.28,5.58,7.28l28.46,2.64,32.06-2.64c4.47,0,5.58-7.28,5.58-7.28Z" fill="#ededed"/>
  <path id="Caminho_60" data-name="Caminho 60" d="M132.48,160.9l-30.66-1.32s1,6.56,5,6.56L132.48,169l28.88-2.82c4,0,5-6.56,5-6.56Z" fill="#ededed"/>
  <path id="Caminho_61" data-name="Caminho 61" d="M95.14,179.14l2.74-4.29a1.47,1.47,0,0,0-.38-2c-2.84-2.07-10.59-7.28-17-7.59a1.48,1.48,0,0,0-1.53,1.31c-.35,2.94-.43,9.95,6.33,11.32l8.32,1.88a1.48,1.48,0,0,0,1.52-.63Z" fill="#ededed"/>
  <path id="Caminho_62" data-name="Caminho 62" d="M173.06,179.14l-2.74-4.29a1.48,1.48,0,0,1,.38-2c2.84-2.07,10.59-7.28,17-7.59a1.48,1.48,0,0,1,1.53,1.31c.35,2.94.43,9.95-6.33,11.32l-8.32,1.88a1.48,1.48,0,0,1-1.52-.63Z" fill="#ededed"/>
  <path id="Caminho_63" data-name="Caminho 63" d="M167.71,189.69l-4.13-5.65H104.27l-3.83,5.65H88.25l-2.53,5.5h96.76l-2.53-5.5Z" fill="#ededed"/>
</svg>
