<?xml version="1.0" encoding="UTF-8"?><svg id="Camada_2" xmlns="http://www.w3.org/2000/svg" viewBox="0 0 815.5 140.11"><defs><style>.cls-1,.cls-2{fill:#fff;}.cls-3{fill:#f6db04;}.cls-4{fill:none;}.cls-4,.cls-2{stroke:#f6db04;stroke-miterlimit:10;stroke-width:5.17px;}</style></defs><g id="Camada_1-2"><g><g><path class="cls-1" d="M359.88,55.08h29.63c1,0,2,.35,3,1.04,1,.69,1.9,1.61,2.71,2.75,.81,1.14,1.45,2.42,1.93,3.82,.48,1.4,.69,2.82,.64,4.25,0,.24-.01,.46-.04,.68-.02,.22-.06,.44-.11,.68l-3.57,20.14c-.29,1.52-.9,3.07-1.86,4.64-.95,1.57-2.06,2.99-3.32,4.25-1.26,1.26-2.57,2.3-3.93,3.11-1.36,.81-2.58,1.21-3.68,1.21h-29.63l8.21-46.56Zm7.78,32.56h8.78c.9,0,1.67-.18,2.29-.54,.62-.36,1.13-.85,1.53-1.46,.4-.62,.73-1.33,.96-2.14,.24-.81,.43-1.67,.57-2.57l1-5.07c.05-.47,.08-.93,.11-1.36,.02-.43,.06-.86,.11-1.29,.05-1.24-.17-2.24-.64-3-.48-.76-1.38-1.14-2.71-1.14h-8.78l-3.21,18.57Z"/><path class="cls-1" d="M418.29,101.99c-2.95,0-5.62-.33-8-1-2.38-.67-4.39-1.73-6.03-3.18s-2.87-3.31-3.68-5.57c-.81-2.26-1.14-5.01-1-8.25,0-.86,.05-1.74,.14-2.64,.1-.9,.24-1.86,.43-2.86v-.14c.76-4.19,1.93-7.77,3.5-10.75,1.57-2.97,3.49-5.4,5.75-7.28,2.26-1.88,4.84-3.26,7.75-4.14,2.9-.88,6.05-1.32,9.43-1.32,2.95,0,5.61,.33,7.96,1,2.36,.67,4.36,1.71,6,3.14,1.64,1.43,2.88,3.26,3.71,5.5,.83,2.24,1.2,4.95,1.11,8.14-.1,1.76-.31,3.67-.64,5.71v.14c-.76,4.24-1.94,7.84-3.53,10.82-1.6,2.98-3.52,5.4-5.78,7.28-2.26,1.88-4.84,3.25-7.75,4.11-2.9,.86-6.02,1.28-9.35,1.28Zm5.86-33.28c-1.67,0-3.08,.21-4.25,.64-1.17,.43-2.14,1.06-2.93,1.89s-1.42,1.84-1.89,3.03c-.48,1.19-.86,2.55-1.14,4.07v.14c-.05,.24-.1,.61-.14,1.11-.05,.5-.1,1.13-.14,1.89-.1,2.14,.38,3.77,1.43,4.89,1.05,1.12,2.95,1.68,5.71,1.68,3.24,0,5.58-.83,7.03-2.5,1.45-1.67,2.46-4.02,3.03-7.07v-.14c.1-.47,.17-.95,.21-1.43,.05-.47,.09-.95,.14-1.43,.09-2.14-.38-3.81-1.43-5-1.05-1.19-2.93-1.79-5.64-1.79Z"/></g><path class="cls-1" d="M629.7,55.88l3.54-19.82h-48.85l-8.13,46.12h-17.76c2.43-.88,4.58-2.06,6.47-3.54,1.89-1.48,3.52-3.17,4.91-5.06,1.38-1.89,2.51-3.95,3.39-6.17,.88-2.22,1.52-4.51,1.92-6.88l1.11-5.87c.07-.4,.12-.81,.15-1.21,.03-.41,.05-.81,.05-1.22,.07-2.02-.19-4-.76-5.92-.57-1.92-1.38-3.64-2.43-5.16-1.05-1.52-2.26-2.75-3.64-3.69-1.38-.94-2.82-1.42-4.3-1.42h-100.93l-3.54,19.82h17.29l-8.09,46.12h19.11l8.09-46.12h23.61l-8.13,46.12h19.11l3.44-19.62c.07,1.82,.37,3.83,.91,6.02,.54,2.19,1.25,4.27,2.12,6.22,.88,1.96,1.92,3.62,3.14,5.01,1.21,1.38,2.56,2.18,4.04,2.38h76.06l3.54-19.82h-29.73l.71-4.45h27.51l3.14-17.4h-27.51l.71-4.45h29.73Zm-73.93,4.04c-.34,1.42-1.01,2.43-2.02,3.04-1.01,.61-2.39,.91-4.15,.91h-11.02l1.42-7.99h11.02c3.24,0,4.82,1.15,4.75,3.44v.61Z"/><path class="cls-1" d="M732.04,36.05l-4.15,23.87h-18.51l4.15-23.87h-59.27c-1.62,0-3.41,.57-5.36,1.72-1.96,1.15-3.83,2.61-5.61,4.4-1.79,1.79-3.35,3.79-4.7,6.02-1.35,2.23-2.22,4.42-2.63,6.58l-5.06,28.52c-.07,.07-.1,.41-.1,1.01v1.01c-.07,2.02,.24,4.03,.91,6.02,.67,1.99,1.58,3.78,2.73,5.36,1.15,1.58,2.44,2.87,3.89,3.84,1.45,.98,2.88,1.47,4.3,1.47h33.88l3.54-19.82h-23.46c-1.96,0-3.27-.54-3.94-1.62-.68-1.08-.98-2.49-.91-4.25,0-.88,.1-1.89,.3-3.03l1.42-7.79c.4-2.7,1.16-4.97,2.27-6.83,1.11-1.85,2.92-2.78,5.41-2.78h29.78l-8.13,46.12h19.11l4.25-24.27h18.51l-4.25,24.27h19.22l11.63-65.94h-19.22Z"/><path class="cls-1" d="M777.15,101.99c-4.18,0-7.96-.47-11.33-1.41-3.37-.94-6.22-2.45-8.55-4.5s-4.06-4.69-5.21-7.89c-1.15-3.2-1.62-7.1-1.42-11.68,0-1.22,.07-2.46,.2-3.74,.13-1.28,.34-2.63,.61-4.05v-.2c1.08-5.93,2.73-11.01,4.96-15.22,2.23-4.21,4.94-7.65,8.14-10.32,3.2-2.66,6.86-4.62,10.97-5.87,4.11-1.25,8.56-1.87,13.35-1.87,4.18,0,7.94,.47,11.28,1.42,3.34,.95,6.17,2.43,8.5,4.45,2.33,2.02,4.08,4.62,5.26,7.79,1.18,3.17,1.7,7.01,1.57,11.53-.14,2.49-.44,5.19-.91,8.09v.2c-1.08,6-2.75,11.11-5.01,15.32-2.26,4.21-4.99,7.65-8.19,10.32-3.2,2.66-6.86,4.6-10.97,5.81-4.11,1.21-8.53,1.82-13.25,1.82Zm8.29-47.13c-2.36,0-4.37,.3-6.02,.91-1.65,.61-3.03,1.5-4.15,2.68s-2.01,2.61-2.68,4.3c-.67,1.69-1.21,3.61-1.62,5.77v.2c-.07,.34-.14,.86-.2,1.57-.07,.71-.14,1.6-.2,2.68-.14,3.03,.54,5.34,2.02,6.93s4.18,2.38,8.09,2.38c4.58,0,7.9-1.18,9.96-3.54,2.05-2.36,3.49-5.7,4.3-10.01v-.2c.13-.67,.24-1.35,.3-2.02,.07-.67,.13-1.35,.2-2.02,.13-3.04-.54-5.39-2.02-7.08-1.48-1.68-4.15-2.53-7.99-2.53Z"/><g><line class="cls-2" x1="5.07" y1="2.59" x2="815.5" y2="2.59"/><line class="cls-2" x1="5.07" y1="15.68" x2="453.84" y2="15.68"/></g><g><path class="cls-3" d="M137.08,140.11c-5.7,0-10.33-4.28-10.33-10.36s4.63-10.33,10.33-10.33,10.33,4.28,10.33,10.33-4.57,10.36-10.33,10.36Zm0-2.88c4.02,0,6.93-2.91,6.93-7.48s-2.91-7.42-6.93-7.42-6.93,2.85-6.93,7.42,2.91,7.48,6.93,7.48Z"/><path class="cls-3" d="M187.2,129.87c0,6.23-4.25,10.04-10.74,10.04h-6.6v-20.22h6.6c6.49,0,10.74,3.93,10.74,10.18Zm-10.74,7.33c4.77,0,7.33-2.74,7.33-7.33s-2.56-7.48-7.33-7.48h-3.29v14.81h3.29Z"/><path class="cls-3" d="M196.31,119.69h3.32v20.22h-3.32v-20.22Z"/><path class="cls-3" d="M222,135.78h-8.47l-1.46,4.13h-3.46l7.25-20.25h3.84l7.25,20.25h-3.49l-1.46-4.13Zm-1.22-23.25v2.82l-6.43,3.17v-2.44l6.43-3.55Zm-3,11.14l-3.32,9.4h6.6l-3.29-9.4Z"/><path class="cls-3" d="M242.88,119.69c4.8,0,7.16,2.76,7.16,6.05,0,2.39-1.28,4.95-4.68,5.79l5,8.38h-3.96l-4.66-8.09h-2.53v8.09h-3.32v-20.22h6.98Zm0,2.71h-3.67v6.78h3.67c2.59,0,3.75-1.43,3.75-3.43s-1.16-3.35-3.75-3.35Z"/><path class="cls-3" d="M260.1,119.69h3.32v20.22h-3.32v-20.22Z"/><path class="cls-3" d="M282.82,140.11c-5.7,0-10.33-4.28-10.33-10.36s4.63-10.33,10.33-10.33,10.33,4.28,10.33,10.33-4.57,10.36-10.33,10.36Zm0-2.88c4.02,0,6.93-2.91,6.93-7.48s-2.91-7.42-6.93-7.42-6.93,2.85-6.93,7.42,2.91,7.48,6.93,7.48Z"/><path class="cls-3" d="M332.95,129.87c0,6.23-4.25,10.04-10.74,10.04h-6.6v-20.22h6.6c6.49,0,10.74,3.93,10.74,10.18Zm-10.74,7.33c4.77,0,7.33-2.74,7.33-7.33s-2.56-7.48-7.33-7.48h-3.29v14.81h3.29Z"/><path class="cls-3" d="M351.27,140.11c-5.7,0-10.33-4.28-10.33-10.36s4.63-10.33,10.33-10.33,10.33,4.28,10.33,10.33-4.57,10.36-10.33,10.36Zm0-2.88c4.02,0,6.93-2.91,6.93-7.48s-2.91-7.42-6.93-7.42-6.93,2.85-6.93,7.42,2.91,7.48,6.93,7.48Z"/><path class="cls-3" d="M393.28,119.43c4.22,0,7.86,2.12,9.4,6.08h-3.99c-1.08-2.15-3-3.17-5.41-3.17-4.02,0-6.93,2.85-6.93,7.42s2.91,7.45,6.93,7.45c2.42,0,4.34-1.02,5.41-3.17h3.99c-1.54,3.96-5.18,6.05-9.4,6.05-5.7,0-10.33-4.25-10.33-10.33s4.63-10.33,10.33-10.33Z"/><path class="cls-3" d="M424.55,135.78h-8.47l-1.46,4.13h-3.46l7.25-20.25h3.84l7.25,20.25h-3.49l-1.46-4.13Zm-4.22-12.11l-3.32,9.4h6.6l-3.29-9.4Z"/><path class="cls-3" d="M438.46,119.69h3.58l7.1,15.86,7.07-15.86h3.55v20.22h-3.32v-13.85l-6.17,13.85h-2.3l-6.2-13.85v13.85h-3.32v-20.22Z"/><path class="cls-3" d="M469.93,119.69h3.32v20.22h-3.32v-20.22Z"/><path class="cls-3" d="M500.05,119.66v20.25h-3.32l-9.98-15.1v15.1h-3.32v-20.25h3.32l9.98,15.07v-15.07h3.32Z"/><path class="cls-3" d="M523.06,131.06h-9.51v8.85h-3.32v-20.22h3.32v8.67h9.51v-8.67h3.32v20.22h-3.32v-8.85Z"/><path class="cls-3" d="M545.77,140.11c-5.7,0-10.33-4.28-10.33-10.36s4.63-10.33,10.33-10.33,10.33,4.28,10.33,10.33-4.57,10.36-10.33,10.36Zm0-2.88c4.02,0,6.93-2.91,6.93-7.48s-2.91-7.42-6.93-7.42-6.93,2.85-6.93,7.42,2.91,7.48,6.93,7.48Z"/><path class="cls-3" d="M581.79,119.66v20.25h-3.32l-9.98-15.1v15.1h-3.32v-20.25h3.32l9.98,15.07v-15.07h3.32Z"/><path class="cls-3" d="M603.14,122.36h-7.86v5.94h6.98v2.71h-6.98v6.2h7.86v2.71h-11.17v-20.25h11.17v2.71Z"/><path class="cls-3" d="M613.03,119.69h3.32v20.22h-3.32v-20.22Z"/><path class="cls-3" d="M633.51,119.69c4.8,0,7.16,2.76,7.16,6.05,0,2.39-1.28,4.95-4.68,5.79l5,8.38h-3.96l-4.66-8.09h-2.53v8.09h-3.32v-20.22h6.98Zm0,2.71h-3.67v6.78h3.67c2.59,0,3.75-1.43,3.75-3.43s-1.16-3.35-3.75-3.35Z"/><path class="cls-3" d="M659.95,140.11c-5.7,0-10.33-4.28-10.33-10.36s4.63-10.33,10.33-10.33,10.33,4.28,10.33,10.33-4.57,10.36-10.33,10.36Zm0-2.88c4.02,0,6.93-2.91,6.93-7.48s-2.91-7.42-6.93-7.42-6.92,2.85-6.92,7.42,2.91,7.48,6.92,7.48Z"/></g><path class="cls-1" d="M214.03,36.05h-48.85l-8.13,46.12h-17.76c2.43-.88,4.58-2.06,6.47-3.54,1.89-1.48,3.52-3.17,4.91-5.06,1.38-1.89,2.51-3.95,3.39-6.17,.88-2.22,1.52-4.51,1.92-6.88l1.11-5.87c.07-.4,.12-.81,.15-1.21,.03-.41,.05-.81,.05-1.22,.07-2.02-.19-4-.76-5.92-.57-1.92-1.38-3.64-2.43-5.16-1.05-1.52-2.26-2.75-3.64-3.69-1.38-.94-2.82-1.42-4.3-1.42h-40.96l-11.63,65.94h19.11l3.44-19.62c.07,1.82,.37,3.83,.91,6.02,.54,2.19,1.25,4.27,2.12,6.22,.88,1.96,1.92,3.62,3.14,5.01,1.21,1.38,2.56,2.18,4.05,2.38h76.06l3.54-19.82h-29.73l.71-4.45h27.51l3.14-17.4h-27.51l.71-4.45h53.2l-8.09,46.12h19.12l8.09-46.12h17.4l3.54-19.82h-59.97Zm-77.48,23.87c-.34,1.42-1.01,2.43-2.02,3.04-1.01,.61-2.39,.91-4.15,.91h-11.02l1.42-7.99h11.02c3.24,0,4.82,1.15,4.75,3.44v.61Z"/><path class="cls-1" d="M297.97,101.99c-4.18,0-7.96-.47-11.33-1.41-3.37-.94-6.22-2.45-8.55-4.5s-4.06-4.69-5.21-7.89c-1.15-3.2-1.62-7.1-1.42-11.68,0-1.22,.07-2.46,.2-3.74,.13-1.28,.34-2.63,.61-4.05v-.2c1.08-5.93,2.73-11.01,4.96-15.22,2.23-4.21,4.94-7.65,8.14-10.32,3.2-2.66,6.86-4.62,10.97-5.87,4.11-1.25,8.56-1.87,13.35-1.87,4.18,0,7.94,.47,11.28,1.42,3.34,.95,6.17,2.43,8.5,4.45,2.33,2.02,4.08,4.62,5.26,7.79,1.18,3.17,1.7,7.01,1.57,11.53-.14,2.49-.44,5.19-.91,8.09v.2c-1.08,6-2.75,11.11-5.01,15.32-2.26,4.21-4.99,7.65-8.19,10.32-3.2,2.66-6.86,4.6-10.97,5.81-4.11,1.21-8.53,1.82-13.25,1.82Zm8.29-47.13c-2.36,0-4.37,.3-6.02,.91-1.65,.61-3.03,1.5-4.15,2.68s-2.01,2.61-2.68,4.3c-.67,1.69-1.21,3.61-1.62,5.77v.2c-.07,.34-.14,.86-.2,1.57-.07,.71-.14,1.6-.2,2.68-.14,3.03,.54,5.34,2.02,6.93,1.48,1.58,4.18,2.38,8.09,2.38,4.58,0,7.9-1.18,9.96-3.54,2.06-2.36,3.49-5.7,4.3-10.01v-.2c.13-.67,.24-1.35,.3-2.02,.07-.67,.13-1.35,.2-2.02,.13-3.04-.54-5.39-2.02-7.08-1.48-1.68-4.15-2.53-7.99-2.53Z"/><g><polygon class="cls-1" points="95.52 55.37 98.93 36.05 79.81 36.05 76.41 55.37 95.52 55.37"/><polygon class="cls-1" points="75.69 59.46 68.18 101.99 87.3 101.99 94.8 59.46 75.69 59.46"/></g><g><path class="cls-1" d="M69.5,46.83c-.67-1.99-1.58-3.79-2.73-5.41-1.15-1.62-2.43-2.92-3.84-3.89-1.42-.98-2.83-1.47-4.25-1.47H16.71l-1.28,7.27,20.07,12.55h9.23c1.89,0,3.17,.54,3.84,1.62,.67,1.08,.98,2.5,.91,4.25-.07,.61-.12,1.21-.15,1.82-.03,.61-.09,1.25-.15,1.92l-1.42,7.18c-.2,1.28-.47,2.5-.81,3.64-.34,1.15-.79,2.16-1.37,3.03-.57,.88-1.3,1.57-2.17,2.07-.88,.5-1.96,.76-3.24,.76h-12.44l1.64-9.45-21.05,10.89-3.24,18.39H47.05c1.55,0,3.29-.57,5.21-1.72,1.92-1.15,3.77-2.61,5.56-4.4,1.79-1.78,3.35-3.79,4.7-6.02,1.35-2.22,2.23-4.42,2.63-6.58l5.06-28.52c.07-.34,.12-.66,.15-.96,.03-.3,.05-.62,.05-.96,.07-2.02-.24-4.03-.91-6.02Z"/><polygon class="cls-3" points="0 83.86 6.86 42.87 39.63 63.36 0 83.86"/></g><g><line class="cls-4" x1="594.41" y1="15.68" x2="634.39" y2="15.68"/><line class="cls-4" x1="473.85" y1="15.68" x2="513.84" y2="15.68"/><line class="cls-4" x1="533.85" y1="15.68" x2="574.4" y2="15.68"/><line class="cls-4" x1="774.96" y1="15.68" x2="815.5" y2="15.68"/><line class="cls-4" x1="714.96" y1="15.68" x2="754.94" y2="15.68"/><line class="cls-4" x1="654.4" y1="15.68" x2="694.95" y2="15.68"/></g></g></g></svg>