<svg xmlns="http://www.w3.org/2000/svg" viewBox="0 0 1201.24 289.1"><defs><style>.cls-1{fill:#ededed;}</style></defs><g id="Layer_2" data-name="Layer 2"><g id="Camada_1" data-name="Camada 1"><path class="cls-1" d="M268.27,39.35,268.2,35s-2.3,2.42-10,8.09c-40.06-9.46-84-19.57-124.06-32.37h0V0l-1.71.55C93.84,12.86,52.52,22.59,12.56,32L0,35s2.33,2.5,10,8.17C8,165.17,46.5,249.27,134.1,278.38V289.1l1.78-.59c45.72-15.19,80.15-45,102.33-88.55C259.24,158.64,269.36,104.61,268.27,39.35ZM164,230.51l-30.15-16.3-30.18,16.3c-45.73-30.22-69.8-88.44-68.45-167.35,31-7.32,67.6-15.32,98.63-25.22,31,9.9,68.14,17.9,99.13,25.22C234.3,142.07,209.69,200.29,164,230.51Z"/><polygon class="cls-1" points="87.73 87.93 85.01 117.47 183.19 117.47 179.1 87.93 87.73 87.93"/><path class="cls-1" d="M167.59,64h-67c-8.54,0-10.68,12.44-10.68,12.44h88.34S176.13,64,167.59,64Z"/><path class="cls-1" d="M189.4,88.76v25.91a1,1,0,0,0,1.74.75l3.87-3a2.17,2.17,0,0,0,.66-1.57l.75-19.7a2.08,2.08,0,0,0-1.2-1.93l-4.43-1.42A1,1,0,0,0,189.4,88.76Z"/><path class="cls-1" d="M78.81,88.76v25.91a1,1,0,0,1-1.75.75l-3.87-3a2.17,2.17,0,0,1-.66-1.57l-.75-19.7A2.08,2.08,0,0,1,73,89.22l4.43-1.42A1,1,0,0,1,78.81,88.76Z"/><path class="cls-1" d="M132.19,128.55l-40-1.08s1.18,7.75,5.94,7.75l34,2.25L170,135.22c4.76,0,5.94-7.75,5.94-7.75Z"/><path class="cls-1" d="M132.3,144.87l-34-1.46s1.11,7.28,5.58,7.28l28.46,2.64,32.06-2.64c4.47,0,5.58-7.28,5.58-7.28Z"/><path class="cls-1" d="M132.48,160.9l-30.66-1.32s1,6.56,5,6.56L132.48,169l28.88-2.82c4,0,5-6.56,5-6.56Z"/><path class="cls-1" d="M95.14,179.14l2.74-4.29a1.47,1.47,0,0,0-.38-2c-2.84-2.07-10.59-7.28-17-7.59a1.48,1.48,0,0,0-1.53,1.31c-.35,2.94-.43,9.95,6.33,11.32l8.32,1.88A1.48,1.48,0,0,0,95.14,179.14Z"/><path class="cls-1" d="M173.06,179.14l-2.74-4.29a1.48,1.48,0,0,1,.38-2c2.84-2.07,10.59-7.28,17-7.59a1.48,1.48,0,0,1,1.53,1.31c.35,2.94.43,9.95-6.33,11.32l-8.32,1.88A1.48,1.48,0,0,1,173.06,179.14Z"/><polygon class="cls-1" points="167.71 189.69 163.58 184.04 104.27 184.04 100.44 189.69 88.25 189.69 85.72 195.19 182.48 195.19 179.95 189.69 167.71 189.69"/><path class="cls-1" d="M443.52,121.93l-6.64,45.24c-2.5,17,9.32,30.88,26.35,30.88h54.58l3.69-25.14H475.3c-7.19,0-12.19-5.85-11.13-13l4.5-30.64a15.65,15.65,0,0,1,14.95-13h46.2l3.69-25.14H478.93C461.91,91.05,446,104.9,443.52,121.93Z"/><polygon class="cls-1" points="478.72 157.12 515.34 157.12 519.03 131.98 482.41 131.98 478.72 157.12"/><path class="cls-1" d="M647.28,91.05H579.17c-14.65,0-28.32,11.92-30.48,26.58l-7.9,53.85c-2.15,14.65,8,26.57,22.67,26.57h37.7c14.65,0,28.32-11.92,30.47-26.57l4.75-32.37h-43.5l14.89,16.36-2.51,17.08a.44.44,0,0,1-.41.36H574.71A6.67,6.67,0,0,1,568,165l6-40.9a9.5,9.5,0,0,1,9.07-7.91h46.68Z"/><polygon class="cls-1" points="651.89 116.19 691.15 116.19 679.13 198.05 705.35 198.05 717.36 116.19 749.67 116.19 753.36 91.05 669.46 91.05 651.89 116.19"/><path class="cls-1" d="M936.63,166a8.26,8.26,0,0,1-7.89,6.89H905.18a6.72,6.72,0,0,1-6.8-8l10.85-73.9H883l-11.8,80.43c-2.15,14.65,8,26.57,22.67,26.57h37.7c14.65,0,28.32-11.92,30.47-26.57l11.8-80.43H947.64Z"/><path class="cls-1" d="M856.23,139.16l3.16-21.53c2.15-14.66-8-26.58-22.67-26.58H772.45l-15.71,107H783l12-81.86h32.78a4.76,4.76,0,0,1,4.81,5.64L830.63,135a6.77,6.77,0,0,1-6.46,5.64H794.59l27,57.45h27.55l-14.5-33.2C846.87,162.16,854.12,153.53,856.23,139.16Z"/><path class="cls-1" d="M344.74,98.87a31.26,31.26,0,0,0-10.52,18.83c-3.08,21.14,3.25,27.33,22.66,34.18l30.66,10.74c2.09.9,3.25,2.17,3.45,3.78a5.39,5.39,0,0,1-1.29,3.92,8,8,0,0,1-5.68,2.59h-57.9l-3.69,25.14H386.7a30.5,30.5,0,0,0,20-7.82,31.26,31.26,0,0,0,10.52-18.83c3.08-21.13-3.26-27.33-22.65-34.18l-30.66-10.74c-3.08-1.37-3.79-4-3.12-6.1s2.7-4,6.65-4.19h57.88L429,91.05H364.7A30.5,30.5,0,0,0,344.74,98.87Z"/><polygon class="cls-1" points="1201.24 91.05 1170.52 91.05 1121.74 141.06 1129.08 91.05 1102.86 91.05 1087.16 198.05 1113.37 198.05 1120.71 148.04 1154.82 198.05 1185.53 198.05 1149.05 144.55 1201.24 91.05"/><path class="cls-1" d="M1071.76,172.91h-56.71a6.67,6.67,0,0,1-6.75-7.91l6-40.9a9.48,9.48,0,0,1,9.07-7.91h56.72l3.69-25.14h-64.27c-14.67,0-28.32,11.9-30.47,26.58l-7.91,53.85c-2.15,14.67,8,26.57,22.68,26.57h64.26Z"/></g></g></svg>