<svg xmlns="http://www.w3.org/2000/svg" width="20" height="16.252" viewBox="0 0 20 16.252">
  <path id="Icon" d="M22,6.36a8.191,8.191,0,0,1-2.357.646,4.11,4.11,0,0,0,1.8-2.27,8.227,8.227,0,0,1-2.606,1,4.1,4.1,0,0,0-7.1,2.807,4.149,4.149,0,0,0,.106.935A11.648,11.648,0,0,1,3.391,5.186a4.111,4.111,0,0,0,1.27,5.478A4.1,4.1,0,0,1,2.8,10.151V10.2a4.1,4.1,0,0,0,3.291,4.023,4.1,4.1,0,0,1-1.081.144,4.178,4.178,0,0,1-.772-.073,4.108,4.108,0,0,0,3.833,2.85A8.279,8.279,0,0,1,2,18.845a11.616,11.616,0,0,0,6.29,1.843A11.594,11.594,0,0,0,19.962,9.014q0-.267-.012-.531A8.349,8.349,0,0,0,22,6.36Z" transform="translate(-1.999 -4.436)" fill="#fff"/>
</svg>
