<svg id="whatsapp" xmlns="http://www.w3.org/2000/svg" width="20" height="20" viewBox="0 0 20 20">
  <path id="Caminho_518" data-name="Caminho 518" d="M20,9.743A9.836,9.836,0,0,1,5.436,18.274L0,20l1.772-5.228A9.643,9.643,0,0,1,.364,9.742,9.818,9.818,0,0,1,20,9.743ZM10.18,1.553A8.232,8.232,0,0,0,1.927,9.745a8.1,8.1,0,0,0,1.572,4.8l-1.03,3.041,3.171-1.008a8.264,8.264,0,0,0,12.8-6.837A8.231,8.231,0,0,0,10.18,1.553Zm4.959,10.433c-.061-.1-.222-.158-.462-.278s-1.424-.7-1.644-.775-.382-.121-.543.119-.62.777-.762.937-.28.18-.521.062a6.635,6.635,0,0,1-1.936-1.185A7.185,7.185,0,0,1,7.934,9.212c-.142-.239-.014-.368.1-.487s.241-.279.361-.419a1.592,1.592,0,0,0,.241-.4.445.445,0,0,0-.02-.419c-.06-.12-.541-1.294-.742-1.772s-.4-.4-.541-.4-.3-.02-.461-.02a.881.881,0,0,0-.641.3,2.672,2.672,0,0,0-.842,1.992,4.617,4.617,0,0,0,.982,2.47,9.857,9.857,0,0,0,4.112,3.605c2.448.955,2.448.637,2.888.6A2.428,2.428,0,0,0,15,13.126,1.984,1.984,0,0,0,15.139,11.987Z" fill="#fff"/>
</svg>
